<svg width="25" height="24" viewBox="0 0 25 24" fill="none" xmlns="http://www.w3.org/2000/svg">
<path d="M6.02259 21.5C5.51743 21.5 5.08984 21.325 4.73984 20.975C4.38984 20.625 4.21484 20.1974 4.21484 19.6922V6.30773C4.21484 5.80257 4.38984 5.37498 4.73984 5.02498C5.08984 4.67498 5.51743 4.49998 6.02259 4.49998H7.40709V2.38474H8.94559V4.49998H16.5226V2.38474H18.0226V4.49998H19.4071C19.9123 4.49998 20.3398 4.67498 20.6898 5.02498C21.0398 5.37498 21.2148 5.80257 21.2148 6.30773V19.6922C21.2148 20.1974 21.0398 20.625 20.6898 20.975C20.3398 21.325 19.9123 21.5 19.4071 21.5H6.02259ZM6.02259 20H19.4071C19.4841 20 19.5546 19.9679 19.6186 19.9037C19.6828 19.8397 19.7148 19.7692 19.7148 19.6922V10.3077H5.71484V19.6922C5.71484 19.7692 5.74693 19.8397 5.81109 19.9037C5.87509 19.9679 5.94559 20 6.02259 20ZM5.71484 8.80773H19.7148V6.30773C19.7148 6.23073 19.6828 6.16023 19.6186 6.09623C19.5546 6.03207 19.4841 5.99998 19.4071 5.99998H6.02259C5.94559 5.99998 5.87509 6.03207 5.81109 6.09623C5.74693 6.16023 5.71484 6.23073 5.71484 6.30773V8.80773Z" fill="white" fill-opacity="0.3"/>
</svg>
