<svg width="25" height="24" viewBox="0 0 25 24" fill="none" xmlns="http://www.w3.org/2000/svg">
<g clip-path="url(#clip0_46_8912)">
<path d="M9.83443 15.515L18.4729 6.87653C18.6216 6.7277 18.7956 6.6517 18.9949 6.64853C19.1943 6.64537 19.3715 6.72137 19.5267 6.87653C19.6818 7.0317 19.7594 7.20987 19.7594 7.41103C19.7594 7.61237 19.6818 7.79061 19.5267 7.94578L10.4672 17.0208C10.2863 17.2014 10.0754 17.2918 9.83443 17.2918C9.59343 17.2918 9.38251 17.2014 9.20168 17.0208L5.02668 12.8458C4.87801 12.6969 4.80468 12.5203 4.80668 12.3158C4.80851 12.1114 4.88701 11.9317 5.04218 11.7765C5.19735 11.6214 5.37551 11.5438 5.57668 11.5438C5.77801 11.5438 5.95626 11.6214 6.11143 11.7765L9.83443 15.515Z" fill="white"/>
</g>
<defs>
<clipPath id="clip0_46_8912">
<rect width="24" height="24" fill="white" transform="translate(0.285156)"/>
</clipPath>
</defs>
</svg>
