<svg width="25" height="24" viewBox="0 0 25 24" fill="none" xmlns="http://www.w3.org/2000/svg">
<g clip-path="url(#clip0_230_9129)">
<path d="M7.28516 15.25H17.2852C17.498 15.25 17.6762 15.1782 17.8197 15.0345C17.9633 14.891 18.0352 14.7128 18.0352 14.5C18.0352 14.2872 17.9633 14.109 17.8197 13.9655C17.6762 13.8218 17.498 13.75 17.2852 13.75H7.28516C7.07232 13.75 6.89416 13.8218 6.75066 13.9655C6.60699 14.109 6.53516 14.2872 6.53516 14.5C6.53516 14.7128 6.60699 14.891 6.75066 15.0345C6.89416 15.1782 7.07232 15.25 7.28516 15.25ZM7.28516 12.25H17.2852C17.498 12.25 17.6762 12.1782 17.8197 12.0345C17.9633 11.891 18.0352 11.7128 18.0352 11.5C18.0352 11.2872 17.9633 11.109 17.8197 10.9655C17.6762 10.8218 17.498 10.75 17.2852 10.75H7.28516C7.07232 10.75 6.89416 10.8218 6.75066 10.9655C6.60699 11.109 6.53516 11.2872 6.53516 11.5C6.53516 11.7128 6.60699 11.891 6.75066 12.0345C6.89416 12.1782 7.07232 12.25 7.28516 12.25ZM7.28516 9.25H17.2852C17.498 9.25 17.6762 9.17817 17.8197 9.0345C17.9633 8.891 18.0352 8.71283 18.0352 8.5C18.0352 8.28717 17.9633 8.109 17.8197 7.9655C17.6762 7.82183 17.498 7.75 17.2852 7.75H7.28516C7.07232 7.75 6.89416 7.82183 6.75066 7.9655C6.60699 8.109 6.53516 8.28717 6.53516 8.5C6.53516 8.71283 6.60699 8.891 6.75066 9.0345C6.89416 9.17817 7.07232 9.25 7.28516 9.25ZM4.59291 19C4.08774 19 3.66016 18.825 3.31016 18.475C2.96016 18.125 2.78516 17.6974 2.78516 17.1923V5.80775C2.78516 5.30258 2.96016 4.875 3.31016 4.525C3.66016 4.175 4.08774 4 4.59291 4H19.9774C20.4826 4 20.9102 4.175 21.2602 4.525C21.6102 4.875 21.7852 5.30258 21.7852 5.80775V20.3538C21.7852 20.7589 21.6002 21.0394 21.2304 21.1952C20.8604 21.3509 20.5332 21.2864 20.2487 21.0018L18.2467 19H4.59291ZM18.8852 17.5L20.2852 18.8848V5.80775C20.2852 5.73075 20.2531 5.66025 20.1889 5.59625C20.1249 5.53208 20.0544 5.5 19.9774 5.5H4.59291C4.51591 5.5 4.44541 5.53208 4.38141 5.59625C4.31724 5.66025 4.28516 5.73075 4.28516 5.80775V17.1923C4.28516 17.2692 4.31724 17.3398 4.38141 17.4038C4.44541 17.4679 4.51591 17.5 4.59291 17.5H18.8852Z" fill="#FFAABB"/>
</g>
<defs>
<clipPath id="clip0_230_9129">
<rect width="24" height="24" fill="white" transform="translate(0.285156)"/>
</clipPath>
</defs>
</svg>
