<svg width="25" height="24" viewBox="0 0 25 24" fill="none" xmlns="http://www.w3.org/2000/svg">
<path d="M12.7177 15.577C13.8508 15.577 14.8132 15.1804 15.6049 14.3872C16.3966 13.5941 16.7924 12.6309 16.7924 11.4978C16.7924 10.3646 16.3958 9.40217 15.6027 8.6105C14.8095 7.81883 13.8463 7.423 12.7132 7.423C11.58 7.423 10.6176 7.81958 9.82591 8.61275C9.03424 9.40592 8.63841 10.3691 8.63841 11.5023C8.63841 12.6354 9.03499 13.5978 9.82816 14.3895C10.6213 15.1812 11.5845 15.577 12.7177 15.577ZM12.7154 14.2C11.9654 14.2 11.3279 13.9375 10.8029 13.4125C10.2779 12.8875 10.0154 12.25 10.0154 11.5C10.0154 10.75 10.2779 10.1125 10.8029 9.5875C11.3279 9.0625 11.9654 8.8 12.7154 8.8C13.4654 8.8 14.1029 9.0625 14.6279 9.5875C15.1529 10.1125 15.4154 10.75 15.4154 11.5C15.4154 12.25 15.1529 12.8875 14.6279 13.4125C14.1029 13.9375 13.4654 14.2 12.7154 14.2ZM12.7167 18.5C10.4172 18.5 8.32191 17.8657 6.43091 16.597C4.53991 15.3285 3.14757 13.6295 2.25391 11.5C3.14757 9.3705 4.53941 7.6715 6.42941 6.403C8.31957 5.13433 10.4145 4.5 12.7142 4.5C15.0137 4.5 17.1089 5.13433 18.9999 6.403C20.8909 7.6715 22.2832 9.3705 23.1769 11.5C22.2832 13.6295 20.8914 15.3285 19.0014 16.597C17.1112 17.8657 15.0163 18.5 12.7167 18.5ZM12.7154 17C14.5987 17 16.3279 16.5042 17.9029 15.5125C19.4779 14.5208 20.6821 13.1833 21.5154 11.5C20.6821 9.81667 19.4779 8.47917 17.9029 7.4875C16.3279 6.49583 14.5987 6 12.7154 6C10.8321 6 9.10291 6.49583 7.52791 7.4875C5.95291 8.47917 4.74874 9.81667 3.91541 11.5C4.74874 13.1833 5.95291 14.5208 7.52791 15.5125C9.10291 16.5042 10.8321 17 12.7154 17Z" fill="white" fill-opacity="0.3"/>
</svg>
