<svg width="24" height="23" viewBox="0 0 24 23" fill="none" xmlns="http://www.w3.org/2000/svg">
<g clip-path="url(#clip0_4006_10370)">
<path d="M12.0014 12.1835L7.26658 16.9185C7.13731 17.0476 6.97483 17.1137 6.77914 17.1169C6.58361 17.1198 6.41818 17.0537 6.28284 16.9185C6.14767 16.7832 6.08008 16.6192 6.08008 16.4267C6.08008 16.2341 6.14767 16.0701 6.28284 15.9348L11.0179 11.2L6.28284 6.46519C6.15373 6.33592 6.08762 6.17344 6.08451 5.97775C6.08156 5.78222 6.14767 5.61679 6.28284 5.48145C6.41818 5.34628 6.58213 5.27869 6.77471 5.27869C6.96729 5.27869 7.13124 5.34628 7.26658 5.48145L12.0014 10.2165L16.7362 5.48145C16.8654 5.35234 17.0279 5.28623 17.2236 5.28312C17.4191 5.28016 17.5846 5.34628 17.7199 5.48145C17.8551 5.61679 17.9227 5.78074 17.9227 5.97332C17.9227 6.1659 17.8551 6.32985 17.7199 6.46519L12.9849 11.2L17.7199 15.9348C17.849 16.0641 17.9151 16.2265 17.9182 16.4222C17.9212 16.6178 17.8551 16.7832 17.7199 16.9185C17.5846 17.0537 17.4206 17.1213 17.228 17.1213C17.0355 17.1213 16.8715 17.0537 16.7362 16.9185L12.0014 12.1835Z" fill="white" fill-opacity="0.5"/>
</g>
<defs>
<clipPath id="clip0_4006_10370">
<rect width="22.4" height="22.4" fill="white" transform="translate(0.800781)"/>
</clipPath>
</defs>
</svg>
